<svg xmlns="http://www.w3.org/2000/svg" xmlns:xlink="http://www.w3.org/1999/xlink" width="512" height="512"><defs><linearGradient id="b"><stop offset="0" style="stop-color:#1c70c4;stop-opacity:1"/><stop offset="1" style="stop-color:#3bf199;stop-opacity:1"/></linearGradient><linearGradient id="a"><stop offset=".442" style="stop-color:#000;stop-opacity:0"/><stop offset=".583" style="stop-color:#000;stop-opacity:1"/></linearGradient><linearGradient xlink:href="#a" id="f" x1="177.982" x2="301.321" y1="185.52" y2="345.792" gradientUnits="userSpaceOnUse"/><linearGradient xlink:href="#b" id="e" x1="-177.486" x2="78.306" y1="533.74" y2="277.233" gradientUnits="userSpaceOnUse" spreadMethod="pad"/><clipPath id="d" clipPathUnits="userSpaceOnUse"><path d="m78.508 275.858-325.89 171.31c56.409 13.396 82.45 41.146 82.45 41.146l-1.715 33.802 9.795-24.93c50.404 20.002 86.195 62.467 86.195 62.467zm-245.025 246.015 21.63-19.455-11.649-5.936z" style="display:inline;mix-blend-mode:normal;fill:none;fill-opacity:1;stroke:#000;stroke-width:3.677;stroke-linejoin:round;stroke-miterlimit:0;stroke-dasharray:none"/></clipPath></defs><g style="display:inline"><path d="M-289.314 239.081h411.533v358.781h-411.533z" clip-path="url(#d)" style="display:inline;opacity:1;mix-blend-mode:normal;fill:url(#e);fill-opacity:1;fill-rule:nonzero;stroke:#000;stroke-width:.230188;stroke-linejoin:round" transform="matrix(1.39513 0 0 1.59932 372.8 -413.124)"/><path d="m256.822 127.686-92.758 356.297C211.95 451.296 250 450.724 250 450.724l23.837 24.028L262 450.725c48.726-23.8 104.221-21.673 104.221-21.673z" style="display:inline;mix-blend-mode:normal;fill:none;fill-opacity:1;stroke:#000;stroke-width:3.82756;stroke-linejoin:round;stroke-miterlimit:0;stroke-dasharray:none" transform="matrix(.93933 1.1825 -1.03153 1.07681 372.8 -413.124)"/><path d="m273.745 474.492.18-29.092-12.233 4.617z" style="display:inline;mix-blend-mode:normal;fill:none;fill-opacity:1;stroke:#000;stroke-width:3.81029;stroke-linecap:butt;stroke-linejoin:round;stroke-miterlimit:0;stroke-dasharray:none;stroke-opacity:1" transform="matrix(.93933 1.1825 -1.03153 1.07681 372.8 -413.124)"/><path d="M144.388 353.822c-.625-6.436 1.138-22.83 1.526-24.5.54-2.318 225.558-191.264 225.696-191.126.218.218-218.409 196.688-219.99 197.717-.881.574-7.081 19.466-7.232 17.91z" style="fill:url(#f);stroke:#eb002d;stroke-width:0;stroke-linejoin:round;stroke-miterlimit:0;stroke-dasharray:none;stroke-opacity:1" transform="matrix(1.395 -.02152 .01877 1.59917 -64.709 -155.233)"/><path d="m261.266 392.929 41.13 43.413m-97.46 25.795 45.088-67.203 11.353-6.367m.355 61.601-3.514-314.904m-1.72-3.544-6.767 318.933" style="display:inline;fill:none;fill-opacity:1;stroke:#000;stroke-width:3.81029;stroke-linecap:butt;stroke-linejoin:round;stroke-miterlimit:0;stroke-dasharray:none;stroke-opacity:1" transform="matrix(.93933 1.1825 -1.03153 1.07681 372.8 -413.124)"/><path d="M157.791 394.966c-3.952-2.715 5.288-15.624 8.19-23.575.074-.202 10.04 4.89 9.988 5.033-6.084 6.216-11.009 23.465-18.178 18.542z" style="opacity:1;fill:#111;fill-opacity:.415691;fill-rule:nonzero;stroke:none;stroke-width:0;stroke-linecap:butt;stroke-linejoin:round;stroke-miterlimit:0;stroke-dasharray:none;stroke-opacity:1" transform="matrix(1.12205 0 0 1.12139 -31.003 -30.94)"/></g></svg>